<mxfile host="app.diagrams.net" modified="2022-05-19T04:03:54.845Z" agent="5.0 (Macintosh; Intel Mac OS X 10_15_7) AppleWebKit/605.1.15 (KHTML, like Gecko) Version/14.1.1 Safari/605.1.15" etag="oRFndxsUk7x1D5Npj0KL" version="18.0.7" type="github">
  <diagram id="C5RBs43oDa-KdzZeNtuy" name="Page-1">
    <mxGraphModel dx="1298" dy="893" grid="1" gridSize="10" guides="1" tooltips="1" connect="1" arrows="1" fold="1" page="1" pageScale="1" pageWidth="827" pageHeight="1169" math="0" shadow="0">
      <root>
        <mxCell id="WIyWlLk6GJQsqaUBKTNV-0" />
        <mxCell id="WIyWlLk6GJQsqaUBKTNV-1" parent="WIyWlLk6GJQsqaUBKTNV-0" />
        <mxCell id="Zko3_Acx1T2fidtYqWdB-11" style="edgeStyle=orthogonalEdgeStyle;rounded=0;orthogonalLoop=1;jettySize=auto;html=1;endArrow=block;endFill=0;dashed=1;" parent="WIyWlLk6GJQsqaUBKTNV-1" source="Zko3_Acx1T2fidtYqWdB-6" target="Zko3_Acx1T2fidtYqWdB-10" edge="1">
          <mxGeometry relative="1" as="geometry" />
        </mxCell>
        <mxCell id="Zko3_Acx1T2fidtYqWdB-42" style="edgeStyle=orthogonalEdgeStyle;rounded=0;orthogonalLoop=1;jettySize=auto;html=1;endArrow=classic;endFill=1;" parent="WIyWlLk6GJQsqaUBKTNV-1" source="Zko3_Acx1T2fidtYqWdB-6" target="Zko3_Acx1T2fidtYqWdB-32" edge="1">
          <mxGeometry relative="1" as="geometry">
            <Array as="points">
              <mxPoint x="567" y="510" />
              <mxPoint x="570" y="510" />
            </Array>
          </mxGeometry>
        </mxCell>
        <mxCell id="Zko3_Acx1T2fidtYqWdB-92" style="edgeStyle=orthogonalEdgeStyle;rounded=0;orthogonalLoop=1;jettySize=auto;html=1;endArrow=classic;endFill=1;entryX=0;entryY=0.5;entryDx=0;entryDy=0;" parent="WIyWlLk6GJQsqaUBKTNV-1" source="Zko3_Acx1T2fidtYqWdB-6" target="Zko3_Acx1T2fidtYqWdB-47" edge="1">
          <mxGeometry relative="1" as="geometry">
            <mxPoint x="870" y="360" as="targetPoint" />
          </mxGeometry>
        </mxCell>
        <mxCell id="Zko3_Acx1T2fidtYqWdB-6" value="DeepLink" style="swimlane;fontStyle=1;align=center;verticalAlign=top;childLayout=stackLayout;horizontal=1;startSize=26;horizontalStack=0;resizeParent=1;resizeParentMax=0;resizeLast=0;collapsible=1;marginBottom=0;" parent="WIyWlLk6GJQsqaUBKTNV-1" vertex="1">
          <mxGeometry x="434" y="308" width="266" height="104" as="geometry" />
        </mxCell>
        <mxCell id="Zko3_Acx1T2fidtYqWdB-7" value="+ deepLink: DeepLinkCustomLogic&#xa;dependency: DeepLinkDependencyProtocol" style="text;strokeColor=none;fillColor=none;align=left;verticalAlign=top;spacingLeft=4;spacingRight=4;overflow=hidden;rotatable=0;points=[[0,0.5],[1,0.5]];portConstraint=eastwest;" parent="Zko3_Acx1T2fidtYqWdB-6" vertex="1">
          <mxGeometry y="26" width="266" height="44" as="geometry" />
        </mxCell>
        <mxCell id="Zko3_Acx1T2fidtYqWdB-8" value="" style="line;strokeWidth=1;fillColor=none;align=left;verticalAlign=middle;spacingTop=-1;spacingLeft=3;spacingRight=3;rotatable=0;labelPosition=right;points=[];portConstraint=eastwest;" parent="Zko3_Acx1T2fidtYqWdB-6" vertex="1">
          <mxGeometry y="70" width="266" height="8" as="geometry" />
        </mxCell>
        <mxCell id="Zko3_Acx1T2fidtYqWdB-9" value="handle() -&gt; Bool" style="text;strokeColor=none;fillColor=none;align=left;verticalAlign=top;spacingLeft=4;spacingRight=4;overflow=hidden;rotatable=0;points=[[0,0.5],[1,0.5]];portConstraint=eastwest;" parent="Zko3_Acx1T2fidtYqWdB-6" vertex="1">
          <mxGeometry y="78" width="266" height="26" as="geometry" />
        </mxCell>
        <mxCell id="Zko3_Acx1T2fidtYqWdB-10" value="«interface»&lt;br&gt;&lt;b&gt;DeepLinkLogic&lt;/b&gt;" style="html=1;" parent="WIyWlLk6GJQsqaUBKTNV-1" vertex="1">
          <mxGeometry x="200" y="335" width="110" height="50" as="geometry" />
        </mxCell>
        <mxCell id="BP7pMOLaweCqHkq71SQG-1" style="edgeStyle=orthogonalEdgeStyle;rounded=0;orthogonalLoop=1;jettySize=auto;html=1;entryX=1;entryY=0.25;entryDx=0;entryDy=0;" edge="1" parent="WIyWlLk6GJQsqaUBKTNV-1" source="Zko3_Acx1T2fidtYqWdB-32" target="Zko3_Acx1T2fidtYqWdB-37">
          <mxGeometry relative="1" as="geometry" />
        </mxCell>
        <mxCell id="Zko3_Acx1T2fidtYqWdB-32" value="«interface»&lt;br&gt;&lt;b&gt;DeepLinkCustomLogic&lt;/b&gt;" style="html=1;" parent="WIyWlLk6GJQsqaUBKTNV-1" vertex="1">
          <mxGeometry x="477" y="558" width="170" height="50" as="geometry" />
        </mxCell>
        <mxCell id="Zko3_Acx1T2fidtYqWdB-37" value="DeepLinkResult (enum)" style="swimlane;fontStyle=1;align=center;verticalAlign=top;childLayout=stackLayout;horizontal=1;startSize=26;horizontalStack=0;resizeParent=1;resizeParentMax=0;resizeLast=0;collapsible=1;marginBottom=0;" parent="WIyWlLk6GJQsqaUBKTNV-1" vertex="1">
          <mxGeometry x="200" y="574" width="160" height="34" as="geometry" />
        </mxCell>
        <mxCell id="Zko3_Acx1T2fidtYqWdB-39" value="" style="line;strokeWidth=1;fillColor=none;align=left;verticalAlign=middle;spacingTop=-1;spacingLeft=3;spacingRight=3;rotatable=0;labelPosition=right;points=[];portConstraint=eastwest;" parent="Zko3_Acx1T2fidtYqWdB-37" vertex="1">
          <mxGeometry y="26" width="160" height="8" as="geometry" />
        </mxCell>
        <mxCell id="Zko3_Acx1T2fidtYqWdB-43" value="DeepLinkDependency" style="swimlane;fontStyle=1;align=center;verticalAlign=top;childLayout=stackLayout;horizontal=1;startSize=26;horizontalStack=0;resizeParent=1;resizeParentMax=0;resizeLast=0;collapsible=1;marginBottom=0;" parent="WIyWlLk6GJQsqaUBKTNV-1" vertex="1">
          <mxGeometry x="810" y="430" width="280" height="88" as="geometry" />
        </mxCell>
        <mxCell id="Zko3_Acx1T2fidtYqWdB-44" value="appLaunch: AppLaunchLogic&#xa;userDefaultsHelper: UserDefaultsProtocol &#xa;showLoginView: ShowLoginViewProtocol" style="text;strokeColor=none;fillColor=none;align=left;verticalAlign=top;spacingLeft=4;spacingRight=4;overflow=hidden;rotatable=0;points=[[0,0.5],[1,0.5]];portConstraint=eastwest;" parent="Zko3_Acx1T2fidtYqWdB-43" vertex="1">
          <mxGeometry y="26" width="280" height="54" as="geometry" />
        </mxCell>
        <mxCell id="Zko3_Acx1T2fidtYqWdB-45" value="" style="line;strokeWidth=1;fillColor=none;align=left;verticalAlign=middle;spacingTop=-1;spacingLeft=3;spacingRight=3;rotatable=0;labelPosition=right;points=[];portConstraint=eastwest;" parent="Zko3_Acx1T2fidtYqWdB-43" vertex="1">
          <mxGeometry y="80" width="280" height="8" as="geometry" />
        </mxCell>
        <mxCell id="Zko3_Acx1T2fidtYqWdB-47" value="«interface»&lt;br&gt;&lt;b&gt;DeepLinkDependencyProtocol&lt;/b&gt;" style="html=1;" parent="WIyWlLk6GJQsqaUBKTNV-1" vertex="1">
          <mxGeometry x="840" y="335" width="220" height="50" as="geometry" />
        </mxCell>
        <mxCell id="Zko3_Acx1T2fidtYqWdB-49" style="edgeStyle=orthogonalEdgeStyle;rounded=0;orthogonalLoop=1;jettySize=auto;html=1;endArrow=block;endFill=0;dashed=1;exitX=0.5;exitY=0;exitDx=0;exitDy=0;" parent="WIyWlLk6GJQsqaUBKTNV-1" source="Zko3_Acx1T2fidtYqWdB-43" target="Zko3_Acx1T2fidtYqWdB-47" edge="1">
          <mxGeometry relative="1" as="geometry">
            <mxPoint x="690" y="511" as="sourcePoint" />
          </mxGeometry>
        </mxCell>
        <mxCell id="Zko3_Acx1T2fidtYqWdB-83" style="edgeStyle=orthogonalEdgeStyle;rounded=0;orthogonalLoop=1;jettySize=auto;html=1;endArrow=block;endFill=0;dashed=1;entryX=0.25;entryY=1;entryDx=0;entryDy=0;" parent="WIyWlLk6GJQsqaUBKTNV-1" source="Zko3_Acx1T2fidtYqWdB-50" target="Zko3_Acx1T2fidtYqWdB-32" edge="1">
          <mxGeometry relative="1" as="geometry">
            <mxPoint x="470" y="590" as="targetPoint" />
            <Array as="points">
              <mxPoint x="390" y="885" />
              <mxPoint x="390" y="710" />
              <mxPoint x="530" y="710" />
              <mxPoint x="530" y="608" />
            </Array>
          </mxGeometry>
        </mxCell>
        <mxCell id="Zko3_Acx1T2fidtYqWdB-50" value="DeepLinkFromAppsFlyer" style="swimlane;fontStyle=1;align=center;verticalAlign=top;childLayout=stackLayout;horizontal=1;startSize=26;horizontalStack=0;resizeParent=1;resizeParentMax=0;resizeLast=0;collapsible=1;marginBottom=0;" parent="WIyWlLk6GJQsqaUBKTNV-1" vertex="1">
          <mxGeometry x="180" y="840" width="160" height="90" as="geometry" />
        </mxCell>
        <mxCell id="Zko3_Acx1T2fidtYqWdB-51" value="" style="line;strokeWidth=1;fillColor=none;align=left;verticalAlign=middle;spacingTop=-1;spacingLeft=3;spacingRight=3;rotatable=0;labelPosition=right;points=[];portConstraint=eastwest;" parent="Zko3_Acx1T2fidtYqWdB-50" vertex="1">
          <mxGeometry y="26" width="160" height="8" as="geometry" />
        </mxCell>
        <mxCell id="Zko3_Acx1T2fidtYqWdB-52" value="handle() -&gt; DeepLinkResult&#xa;openLink() -&gt; Bool" style="text;strokeColor=none;fillColor=none;align=left;verticalAlign=top;spacingLeft=4;spacingRight=4;overflow=hidden;rotatable=0;points=[[0,0.5],[1,0.5]];portConstraint=eastwest;" parent="Zko3_Acx1T2fidtYqWdB-50" vertex="1">
          <mxGeometry y="34" width="160" height="56" as="geometry" />
        </mxCell>
        <mxCell id="Zko3_Acx1T2fidtYqWdB-91" style="edgeStyle=orthogonalEdgeStyle;rounded=0;orthogonalLoop=1;jettySize=auto;html=1;entryX=0.924;entryY=1;entryDx=0;entryDy=0;entryPerimeter=0;dashed=1;endArrow=block;endFill=0;" parent="WIyWlLk6GJQsqaUBKTNV-1" source="Zko3_Acx1T2fidtYqWdB-53" target="Zko3_Acx1T2fidtYqWdB-32" edge="1">
          <mxGeometry relative="1" as="geometry">
            <Array as="points">
              <mxPoint x="1200" y="660" />
              <mxPoint x="634" y="660" />
            </Array>
          </mxGeometry>
        </mxCell>
        <mxCell id="Zko3_Acx1T2fidtYqWdB-53" value="DeepLinkFromUserActivity" style="swimlane;fontStyle=1;align=center;verticalAlign=top;childLayout=stackLayout;horizontal=1;startSize=26;horizontalStack=0;resizeParent=1;resizeParentMax=0;resizeLast=0;collapsible=1;marginBottom=0;" parent="WIyWlLk6GJQsqaUBKTNV-1" vertex="1">
          <mxGeometry x="1130" y="817" width="160" height="90" as="geometry" />
        </mxCell>
        <mxCell id="Zko3_Acx1T2fidtYqWdB-54" value="" style="line;strokeWidth=1;fillColor=none;align=left;verticalAlign=middle;spacingTop=-1;spacingLeft=3;spacingRight=3;rotatable=0;labelPosition=right;points=[];portConstraint=eastwest;" parent="Zko3_Acx1T2fidtYqWdB-53" vertex="1">
          <mxGeometry y="26" width="160" height="8" as="geometry" />
        </mxCell>
        <mxCell id="Zko3_Acx1T2fidtYqWdB-55" value="handle() -&gt; DeepLinkResult&#xa;openLink() -&gt; Bool" style="text;strokeColor=none;fillColor=none;align=left;verticalAlign=top;spacingLeft=4;spacingRight=4;overflow=hidden;rotatable=0;points=[[0,0.5],[1,0.5]];portConstraint=eastwest;" parent="Zko3_Acx1T2fidtYqWdB-53" vertex="1">
          <mxGeometry y="34" width="160" height="56" as="geometry" />
        </mxCell>
        <mxCell id="Zko3_Acx1T2fidtYqWdB-84" value="" style="edgeStyle=orthogonalEdgeStyle;rounded=0;orthogonalLoop=1;jettySize=auto;html=1;endArrow=classic;endFill=1;entryX=0.5;entryY=0;entryDx=0;entryDy=0;" parent="WIyWlLk6GJQsqaUBKTNV-1" source="Zko3_Acx1T2fidtYqWdB-56" target="Zko3_Acx1T2fidtYqWdB-78" edge="1">
          <mxGeometry relative="1" as="geometry" />
        </mxCell>
        <mxCell id="Zko3_Acx1T2fidtYqWdB-88" style="edgeStyle=orthogonalEdgeStyle;rounded=0;orthogonalLoop=1;jettySize=auto;html=1;dashed=1;endArrow=block;endFill=0;entryX=0.5;entryY=1;entryDx=0;entryDy=0;" parent="WIyWlLk6GJQsqaUBKTNV-1" source="Zko3_Acx1T2fidtYqWdB-56" target="Zko3_Acx1T2fidtYqWdB-32" edge="1">
          <mxGeometry relative="1" as="geometry">
            <mxPoint x="450" y="640" as="targetPoint" />
            <Array as="points">
              <mxPoint x="494" y="750" />
              <mxPoint x="562" y="750" />
            </Array>
          </mxGeometry>
        </mxCell>
        <mxCell id="Zko3_Acx1T2fidtYqWdB-56" value="DeepLinkFromOpenURL" style="swimlane;fontStyle=1;align=center;verticalAlign=top;childLayout=stackLayout;horizontal=1;startSize=26;horizontalStack=0;resizeParent=1;resizeParentMax=0;resizeLast=0;collapsible=1;marginBottom=0;" parent="WIyWlLk6GJQsqaUBKTNV-1" vertex="1">
          <mxGeometry x="414" y="840" width="160" height="90" as="geometry" />
        </mxCell>
        <mxCell id="Zko3_Acx1T2fidtYqWdB-57" value="" style="line;strokeWidth=1;fillColor=none;align=left;verticalAlign=middle;spacingTop=-1;spacingLeft=3;spacingRight=3;rotatable=0;labelPosition=right;points=[];portConstraint=eastwest;" parent="Zko3_Acx1T2fidtYqWdB-56" vertex="1">
          <mxGeometry y="26" width="160" height="8" as="geometry" />
        </mxCell>
        <mxCell id="Zko3_Acx1T2fidtYqWdB-58" value="handle() -&gt; DeepLinkResult&#xa;openLink() -&gt; Bool" style="text;strokeColor=none;fillColor=none;align=left;verticalAlign=top;spacingLeft=4;spacingRight=4;overflow=hidden;rotatable=0;points=[[0,0.5],[1,0.5]];portConstraint=eastwest;" parent="Zko3_Acx1T2fidtYqWdB-56" vertex="1">
          <mxGeometry y="34" width="160" height="56" as="geometry" />
        </mxCell>
        <mxCell id="Zko3_Acx1T2fidtYqWdB-89" style="edgeStyle=orthogonalEdgeStyle;rounded=0;orthogonalLoop=1;jettySize=auto;html=1;dashed=1;endArrow=block;endFill=0;" parent="WIyWlLk6GJQsqaUBKTNV-1" source="Zko3_Acx1T2fidtYqWdB-59" edge="1">
          <mxGeometry relative="1" as="geometry">
            <mxPoint x="580" y="610" as="targetPoint" />
            <Array as="points">
              <mxPoint x="740" y="760" />
              <mxPoint x="580" y="760" />
            </Array>
          </mxGeometry>
        </mxCell>
        <mxCell id="Zko3_Acx1T2fidtYqWdB-59" value="DeepLinkFromRemoteNoti" style="swimlane;fontStyle=1;align=center;verticalAlign=top;childLayout=stackLayout;horizontal=1;startSize=26;horizontalStack=0;resizeParent=1;resizeParentMax=0;resizeLast=0;collapsible=1;marginBottom=0;" parent="WIyWlLk6GJQsqaUBKTNV-1" vertex="1">
          <mxGeometry x="660" y="830" width="160" height="90" as="geometry" />
        </mxCell>
        <mxCell id="Zko3_Acx1T2fidtYqWdB-60" value="" style="line;strokeWidth=1;fillColor=none;align=left;verticalAlign=middle;spacingTop=-1;spacingLeft=3;spacingRight=3;rotatable=0;labelPosition=right;points=[];portConstraint=eastwest;" parent="Zko3_Acx1T2fidtYqWdB-59" vertex="1">
          <mxGeometry y="26" width="160" height="8" as="geometry" />
        </mxCell>
        <mxCell id="Zko3_Acx1T2fidtYqWdB-61" value="handle() -&gt; DeepLinkResult&#xa;openLink() -&gt; Bool" style="text;strokeColor=none;fillColor=none;align=left;verticalAlign=top;spacingLeft=4;spacingRight=4;overflow=hidden;rotatable=0;points=[[0,0.5],[1,0.5]];portConstraint=eastwest;" parent="Zko3_Acx1T2fidtYqWdB-59" vertex="1">
          <mxGeometry y="34" width="160" height="56" as="geometry" />
        </mxCell>
        <mxCell id="Zko3_Acx1T2fidtYqWdB-90" style="edgeStyle=orthogonalEdgeStyle;rounded=0;orthogonalLoop=1;jettySize=auto;html=1;entryX=0.75;entryY=1;entryDx=0;entryDy=0;dashed=1;endArrow=block;endFill=0;" parent="WIyWlLk6GJQsqaUBKTNV-1" source="Zko3_Acx1T2fidtYqWdB-62" target="Zko3_Acx1T2fidtYqWdB-32" edge="1">
          <mxGeometry relative="1" as="geometry">
            <Array as="points">
              <mxPoint x="980" y="710" />
              <mxPoint x="605" y="710" />
            </Array>
          </mxGeometry>
        </mxCell>
        <mxCell id="Zko3_Acx1T2fidtYqWdB-62" value="DeepLinkFromUN" style="swimlane;fontStyle=1;align=center;verticalAlign=top;childLayout=stackLayout;horizontal=1;startSize=26;horizontalStack=0;resizeParent=1;resizeParentMax=0;resizeLast=0;collapsible=1;marginBottom=0;" parent="WIyWlLk6GJQsqaUBKTNV-1" vertex="1">
          <mxGeometry x="920" y="820" width="160" height="90" as="geometry" />
        </mxCell>
        <mxCell id="Zko3_Acx1T2fidtYqWdB-63" value="" style="line;strokeWidth=1;fillColor=none;align=left;verticalAlign=middle;spacingTop=-1;spacingLeft=3;spacingRight=3;rotatable=0;labelPosition=right;points=[];portConstraint=eastwest;" parent="Zko3_Acx1T2fidtYqWdB-62" vertex="1">
          <mxGeometry y="26" width="160" height="8" as="geometry" />
        </mxCell>
        <mxCell id="Zko3_Acx1T2fidtYqWdB-64" value="handle() -&gt; DeepLinkResult&#xa;openLink() -&gt; Bool" style="text;strokeColor=none;fillColor=none;align=left;verticalAlign=top;spacingLeft=4;spacingRight=4;overflow=hidden;rotatable=0;points=[[0,0.5],[1,0.5]];portConstraint=eastwest;" parent="Zko3_Acx1T2fidtYqWdB-62" vertex="1">
          <mxGeometry y="34" width="160" height="56" as="geometry" />
        </mxCell>
        <mxCell id="Zko3_Acx1T2fidtYqWdB-65" value="DeepLinkFromAppsFlyerDependency" style="swimlane;fontStyle=1;align=center;verticalAlign=top;childLayout=stackLayout;horizontal=1;startSize=26;horizontalStack=0;resizeParent=1;resizeParentMax=0;resizeLast=0;collapsible=1;marginBottom=0;" parent="WIyWlLk6GJQsqaUBKTNV-1" vertex="1">
          <mxGeometry x="130" y="980" width="240" height="34" as="geometry" />
        </mxCell>
        <mxCell id="Zko3_Acx1T2fidtYqWdB-66" value="" style="line;strokeWidth=1;fillColor=none;align=left;verticalAlign=middle;spacingTop=-1;spacingLeft=3;spacingRight=3;rotatable=0;labelPosition=right;points=[];portConstraint=eastwest;" parent="Zko3_Acx1T2fidtYqWdB-65" vertex="1">
          <mxGeometry y="26" width="240" height="8" as="geometry" />
        </mxCell>
        <mxCell id="Zko3_Acx1T2fidtYqWdB-72" value="DeepLinkFromUserActivityDependency" style="swimlane;fontStyle=1;align=center;verticalAlign=top;childLayout=stackLayout;horizontal=1;startSize=26;horizontalStack=0;resizeParent=1;resizeParentMax=0;resizeLast=0;collapsible=1;marginBottom=0;" parent="WIyWlLk6GJQsqaUBKTNV-1" vertex="1">
          <mxGeometry x="1121" y="976" width="240" height="34" as="geometry" />
        </mxCell>
        <mxCell id="Zko3_Acx1T2fidtYqWdB-73" value="" style="line;strokeWidth=1;fillColor=none;align=left;verticalAlign=middle;spacingTop=-1;spacingLeft=3;spacingRight=3;rotatable=0;labelPosition=right;points=[];portConstraint=eastwest;" parent="Zko3_Acx1T2fidtYqWdB-72" vertex="1">
          <mxGeometry y="26" width="240" height="8" as="geometry" />
        </mxCell>
        <mxCell id="Zko3_Acx1T2fidtYqWdB-74" value="DeepLinkFromUNDependency" style="swimlane;fontStyle=1;align=center;verticalAlign=top;childLayout=stackLayout;horizontal=1;startSize=26;horizontalStack=0;resizeParent=1;resizeParentMax=0;resizeLast=0;collapsible=1;marginBottom=0;" parent="WIyWlLk6GJQsqaUBKTNV-1" vertex="1">
          <mxGeometry x="915" y="976" width="190" height="34" as="geometry" />
        </mxCell>
        <mxCell id="Zko3_Acx1T2fidtYqWdB-75" value="" style="line;strokeWidth=1;fillColor=none;align=left;verticalAlign=middle;spacingTop=-1;spacingLeft=3;spacingRight=3;rotatable=0;labelPosition=right;points=[];portConstraint=eastwest;" parent="Zko3_Acx1T2fidtYqWdB-74" vertex="1">
          <mxGeometry y="26" width="190" height="8" as="geometry" />
        </mxCell>
        <mxCell id="Zko3_Acx1T2fidtYqWdB-76" value="DeepLinkFromRemoteNotiDependency" style="swimlane;fontStyle=1;align=center;verticalAlign=top;childLayout=stackLayout;horizontal=1;startSize=26;horizontalStack=0;resizeParent=1;resizeParentMax=0;resizeLast=0;collapsible=1;marginBottom=0;" parent="WIyWlLk6GJQsqaUBKTNV-1" vertex="1">
          <mxGeometry x="630" y="976" width="250" height="34" as="geometry" />
        </mxCell>
        <mxCell id="Zko3_Acx1T2fidtYqWdB-77" value="" style="line;strokeWidth=1;fillColor=none;align=left;verticalAlign=middle;spacingTop=-1;spacingLeft=3;spacingRight=3;rotatable=0;labelPosition=right;points=[];portConstraint=eastwest;" parent="Zko3_Acx1T2fidtYqWdB-76" vertex="1">
          <mxGeometry y="26" width="250" height="8" as="geometry" />
        </mxCell>
        <mxCell id="Zko3_Acx1T2fidtYqWdB-78" value="DeepLinkFromOpenURLDependency" style="swimlane;fontStyle=1;align=center;verticalAlign=top;childLayout=stackLayout;horizontal=1;startSize=26;horizontalStack=0;resizeParent=1;resizeParentMax=0;resizeLast=0;collapsible=1;marginBottom=0;" parent="WIyWlLk6GJQsqaUBKTNV-1" vertex="1">
          <mxGeometry x="380.5" y="976" width="227" height="34" as="geometry" />
        </mxCell>
        <mxCell id="Zko3_Acx1T2fidtYqWdB-79" value="" style="line;strokeWidth=1;fillColor=none;align=left;verticalAlign=middle;spacingTop=-1;spacingLeft=3;spacingRight=3;rotatable=0;labelPosition=right;points=[];portConstraint=eastwest;" parent="Zko3_Acx1T2fidtYqWdB-78" vertex="1">
          <mxGeometry y="26" width="227" height="8" as="geometry" />
        </mxCell>
        <mxCell id="Zko3_Acx1T2fidtYqWdB-82" style="edgeStyle=orthogonalEdgeStyle;rounded=0;orthogonalLoop=1;jettySize=auto;html=1;endArrow=classic;endFill=1;" parent="WIyWlLk6GJQsqaUBKTNV-1" source="Zko3_Acx1T2fidtYqWdB-52" target="Zko3_Acx1T2fidtYqWdB-65" edge="1">
          <mxGeometry relative="1" as="geometry">
            <Array as="points">
              <mxPoint x="280" y="1000" />
              <mxPoint x="280" y="1000" />
            </Array>
          </mxGeometry>
        </mxCell>
        <mxCell id="Zko3_Acx1T2fidtYqWdB-85" style="edgeStyle=orthogonalEdgeStyle;rounded=0;orthogonalLoop=1;jettySize=auto;html=1;endArrow=classic;endFill=1;" parent="WIyWlLk6GJQsqaUBKTNV-1" source="Zko3_Acx1T2fidtYqWdB-61" target="Zko3_Acx1T2fidtYqWdB-76" edge="1">
          <mxGeometry relative="1" as="geometry">
            <Array as="points">
              <mxPoint x="755" y="930" />
              <mxPoint x="755" y="930" />
            </Array>
          </mxGeometry>
        </mxCell>
        <mxCell id="Zko3_Acx1T2fidtYqWdB-86" style="edgeStyle=orthogonalEdgeStyle;rounded=0;orthogonalLoop=1;jettySize=auto;html=1;endArrow=classic;endFill=1;entryX=0.5;entryY=0;entryDx=0;entryDy=0;" parent="WIyWlLk6GJQsqaUBKTNV-1" source="Zko3_Acx1T2fidtYqWdB-64" target="Zko3_Acx1T2fidtYqWdB-74" edge="1">
          <mxGeometry relative="1" as="geometry">
            <mxPoint x="1010" y="1040" as="targetPoint" />
            <Array as="points">
              <mxPoint x="1010" y="970" />
            </Array>
          </mxGeometry>
        </mxCell>
        <mxCell id="Zko3_Acx1T2fidtYqWdB-87" style="edgeStyle=orthogonalEdgeStyle;rounded=0;orthogonalLoop=1;jettySize=auto;html=1;endArrow=classic;endFill=1;" parent="WIyWlLk6GJQsqaUBKTNV-1" source="Zko3_Acx1T2fidtYqWdB-55" target="Zko3_Acx1T2fidtYqWdB-72" edge="1">
          <mxGeometry relative="1" as="geometry">
            <Array as="points">
              <mxPoint x="1240" y="938" />
              <mxPoint x="1241" y="938" />
            </Array>
          </mxGeometry>
        </mxCell>
      </root>
    </mxGraphModel>
  </diagram>
</mxfile>
